PathFileType	4	(X/Y/Z)	C:\Users\WrightLab\Desktop\Jo\P5V19.trc
DataRate	CameraRate	NumFrames	NumMarkers	Units	OrigDataRate	OrigDataStartFrame	OrigNumFrames
100.00	100.00	       20	19	mm	100.00	353	       705
Frame#	Time	Headset_Front			Headset_Back			Headset_Left			Headset_Right			Left_Shoulder			Right_Shoulder			Sternum			C7			Left Elbow			Right Elbow			Left Wrist			Right Wrist			Left ASIS			Right ASIS			S2			Left Knee			Right Knee			Left Ankle			Right Ankle			
		X1	Y1	Z1	X2	Y2	Z2	X3	Y3	Z3	X4	Y4	Z4	X5	Y5	Z5	X6	Y6	Z6	X7	Y7	Z7	X8	Y8	Z8	X9	Y9	Z9	X10	Y10	Z10	X11	Y11	Z11	X12	Y12	Z12	X13	Y13	Z13	X14	Y14	Z14	X15	Y15	Z15	X16	Y16	Z16	X17	Y17	Z17	X18	Y18	Z18	X19	Y19	Z19	

353	3.520	-369.68546	1593.39221	518.00488	-75.66408	1531.23462	300.66229							-88.06747	1512.31311	548.47498	-263.55688	1450.03662	179.24477	-261.52414	1330.31824	400.71033	-376.77246	1643.33508	375.39383	7.86777	1253.95386	627.05737	-194.25015	1188.98425	70.42409	-174.94939	1133.23413	694.37726	-325.19113	1007.70099	177.61273	-182.83455	948.74487	541.90930	-236.84686	948.95361	269.66763	42.20885	997.92529	393.73471	-228.05748	532.78491	582.97882	-130.58711	497.54065	196.13757	-283.89920	114.96562	574.74023	106.29578	120.92390	261.86639	
354	3.530	-377.18390	1593.06262	523.71765	-83.88174	1529.81067	306.63559							-96.60595	1510.85364	553.41364	-272.50354	1449.17090	184.31119	-270.87646	1329.04321	405.68582	-385.12305	1642.88440	380.99866	-0.48050	1252.56665	630.87921	-202.05476	1188.04163	75.33726	-183.41011	1131.78198	699.10809	-333.64444	1007.73663	182.49336	-192.34473	947.00464	546.30518	-247.66039	949.19562	274.71356	32.80114	996.48267	399.21249	-233.28134	528.94690	582.89362	-135.27048	497.03534	199.55531	-304.28757	113.49474	571.93268	105.08763	122.58213	262.26968	
355	3.540	-384.93228	1592.77588	529.64777	-92.68590	1528.39539	310.23907							-105.33551	1509.44751	558.44257	-281.11841	1448.43445	189.04425	-279.85785	1327.90198	410.52441	-392.57272	1642.22437	386.28830	-9.41150	1250.47729	635.51917	-210.76740	1187.48218	79.51640	-191.85614	1130.10645	703.40924	-342.25714	1007.72253	187.64134	-202.86725	946.49249	552.45996	-252.81847	945.63654	278.76593	24.11763	995.32007	403.38226	-239.23776	525.73541	583.74780	-140.51595	496.63928	203.96976	-321.04660	111.01419	568.05597	103.55125	124.10401	262.46265	
356	3.550	-392.04654	1592.47607	534.87683	-101.30650	1527.19421	315.42175							-113.37303	1507.53955	563.65289	-289.57721	1447.57275	194.22945	-288.50595	1327.07996	415.42987	-401.00153	1642.19360	392.08011	-18.09526	1247.94177	640.22400	-218.85219	1186.67603	84.24737	-200.91862	1128.38660	708.36707	-350.74219	1007.55737	192.60942	-213.44147	944.84442	557.96857	-263.05048	945.04242	283.01923	15.01456	994.16376	408.15265	-245.01031	522.39160	584.37323	-145.84378	495.77716	208.42035	-336.02567	109.32825	562.51495	101.62325	125.94989	262.73288	
357	3.560	-400.13794	1591.87903	540.79803	-109.31238	1525.57617	321.09918							-121.36234	1506.13599	569.04974	-299.27960	1447.28870	198.55359	-297.82501	1326.32764	420.70978	-408.99289	1641.41992	397.81247	-26.64934	1245.73877	644.50494	-227.87233	1186.47314	88.77361	-209.37996	1126.39441	713.46301	-359.54803	1007.36853	197.94823	-223.90939	943.62036	563.01251	-273.67459	945.01135	287.98303	3.55765	990.84094	413.01230	-251.67699	518.85651	584.24805	-150.93852	495.27936	213.02281	-347.97574	107.00056	557.02338	99.81612	127.55094	262.70621	
358	3.570	-408.12668	1591.95776	546.67639	-117.47068	1523.97107	326.13980							-129.47485	1504.11975	574.71722	-307.64209	1446.99036	204.58936	-306.58331	1324.87024	426.39487	-417.09106	1640.70581	403.66522	-34.58480	1243.38855	648.72339	-236.60278	1186.07007	94.23621	-218.02844	1124.75842	718.25696	-368.13614	1007.06482	202.97377	-235.22942	942.05475	568.62787	-283.44897	942.99994	292.16245	-6.65283	988.92944	417.73608	-259.03098	516.26312	584.02570	-156.91486	494.64874	218.54646	-358.02243	104.71439	549.39612	97.73609	129.60948	262.72150	
359	3.580	-415.32190	1591.27551	552.35541	-124.91437	1521.15369	337.87460							-136.49831	1502.02673	580.13745	-314.66772	1445.83899	211.04729	-315.53381	1324.16199	432.08170	-424.02026	1639.43323	409.00061	-43.21135	1241.32959	653.69324	-245.48749	1185.37085	98.57713	-226.37898	1123.09021	723.30988	-377.11224	1007.13409	208.54361	-246.73100	941.24408	574.58038	-294.90030	942.54309	297.14914	-16.69238	985.33929	421.62646	-267.38419	513.57684	583.81439	-163.13576	494.02875	224.30975	-365.01883	101.56695	543.10126	94.66421	131.74890	262.84241	
360	3.590	-422.81934	1590.45898	558.30322	-132.87892	1519.97339	337.76651							-144.82077	1500.22058	586.24231	-322.98178	1445.71729	217.32719	-324.46744	1323.54541	437.74066	-431.50357	1638.48584	414.70093	-51.66719	1238.34595	659.08905	-254.73946	1185.36438	104.16549	-235.38893	1121.54053	728.46454	-385.93954	1006.95233	213.86995	-257.83475	939.35876	579.61407	-308.71249	944.26300	301.95810	-27.96389	983.02692	426.08713	-275.62524	510.28381	583.25543	-169.74686	493.55276	230.81619	-369.65656	100.21860	539.77161	91.00150	134.30443	262.33167	
361	3.600	-430.52869	1590.27905	564.40546	-140.24068	1517.96228	344.39557							-153.03928	1498.41492	592.48755	-331.03424	1445.51270	223.50311	-333.57346	1323.10815	443.97568	-439.16574	1637.41492	420.61810	-59.84414	1236.32898	663.70526	-264.12439	1185.27063	109.23505	-244.08960	1120.02832	733.30402	-395.08356	1006.61377	219.38254	-270.06821	938.44751	585.39673	-316.21225	942.12671	308.58957	-40.47494	979.23010	430.83917	-284.56644	507.39240	583.67859	-177.11658	493.38110	237.95335	-372.98801	99.01387	536.31238	87.25743	137.28351	262.26950	
362	3.610	-438.33115	1589.59155	570.56677	-147.59967	1515.71997	350.70627							-160.83287	1496.87134	598.86566	-338.37088	1445.30725	229.24536	-342.52802	1322.21069	450.05853	-446.99283	1636.62878	426.64374	-67.22129	1233.25293	668.08246	-272.78192	1184.72925	114.78843	-252.36107	1118.44275	737.94171	-404.12268	1006.51855	224.64195	-282.67163	937.21271	591.00073				-50.52240	976.01666	433.66678	-294.10620	503.49908	583.71521	-184.71948	493.39389	245.03798	-375.96924	96.85974	532.92578	82.47583	140.55933	261.52374	
363	3.620	-445.47693	1589.43213	576.60901	-154.83366	1513.97107	356.00977							-167.90846	1494.90967	605.02521	-345.86865	1445.38867	235.84200	-351.81247	1322.04407	456.17685	-453.23206	1635.43713	432.42972	-75.94964	1230.69067	674.11609	-282.40488	1184.57300	119.88953	-261.52921	1117.47913	743.57788	-413.46695	1005.95996	230.51794	-294.88763	935.60150	596.61572	-346.48911	941.35626	317.94174	-62.45941	972.14642	436.59955	-303.80438	499.76181	584.48425	-193.16544	493.54019	252.56474	-377.25897	96.46159	533.91748	77.90514	144.80345	260.72348	
364	3.630	-453.00162	1589.80542	583.16058	-161.05898	1513.14270	363.86066							-174.83397	1493.23718	610.84851	-353.08377	1446.23950	242.15329	-360.43118	1322.28772	461.98572	-462.12607	1636.03613	439.41159	-84.45191	1228.69971	679.01843	-292.04773	1184.69482	125.64838	-269.87717	1116.21155	748.31915	-422.74329	1006.05768	235.82593	-306.88757	934.60651	601.71088				-74.58048	968.51025	440.52823	-313.38107	495.99185	585.37677	-202.10767	494.17511	260.81531	-378.52786	96.74550	533.99292	71.54995	148.84734	260.00989	
365	3.640	-461.00485	1590.40747	590.03839	-168.86728	1512.56958	367.92874							-181.66362	1491.68701	616.32025	-360.97815	1447.68127	246.17244	-368.69812	1322.88452	467.63440	-470.09579	1636.99780	446.47964	-92.20079	1227.10205	685.17328	-301.78741	1185.14075	131.35777	-278.00177	1114.76221	752.52808	-432.22754	1005.59167	241.52110	-318.50995	934.23834	606.51862				-87.25294	965.51349	443.72116	-323.31915	493.31235	587.90265	-208.15332	493.93637	269.65488	-378.53555	97.60156	535.26373	63.64563	153.19550	259.73087	
366	3.650	-468.11520	1591.47668	597.12701	-176.42943	1512.54370	375.54697							-188.98964	1491.86328	621.62134	-367.62411	1448.97437	252.27051	-377.45755	1324.54553	473.20807	-478.05078	1639.13953	453.74918	-99.71534	1225.14441	688.03430	-311.21082	1185.68420	137.35588	-286.65759	1114.30798	757.51324	-441.66977	1005.69165	247.56636	-330.83539	934.65759	611.74036				-97.59268	964.05225	446.94800	-333.96542	493.89355	592.63904	-218.74120	495.92972	278.67007	-379.68933	98.10688	536.49915	53.82198	158.54260	259.37436	
367	3.660	-475.26016	1592.56335	604.12939	-184.41951	1513.15002	379.61627							-196.00897	1491.76807	626.87958	-376.39932	1451.60730	255.61899	-385.70602	1326.39136	478.28970	-486.04361	1641.49548	461.15070	-109.97543	1225.13977	692.09937	-321.47617	1186.94812	143.63374	-294.80429	1113.85669	762.19043	-451.30212	1005.81268	253.18462	-341.62534	935.89154	616.76056				-104.25318	965.66193	450.10403	-344.46893	496.36261	597.05634	-229.81003	497.58240	287.70734	-380.41064	98.87838	538.60040	42.26963	162.94945	259.05093	
368	3.670	-482.04364	1593.16309	610.90131	-192.60371	1514.25476	385.78448							-203.71300	1492.90674	632.13519	-383.51810	1453.47205	261.74615	-394.33698	1328.20715	483.35056	-493.38480	1643.22656	468.36795	-117.02738	1225.58655	698.68622	-330.82529	1188.41284	150.27029	-303.21570	1113.83301	766.26563	-460.42624	1006.00415	258.66431	-352.32068	938.30164	621.62183				-115.65223	965.05334	454.00037	-354.26129	498.89493	603.80298				-380.59586	98.72532	538.78723	28.75673	168.22923	259.15988	
369	3.680	-488.04184	1593.64465	617.59863	-200.96802	1514.92688	389.66461							-211.15430	1494.07019	637.11340	-392.25259	1456.14392	267.30212	-402.84750	1329.60278	488.62601	-501.06778	1644.35547	475.47482	-125.82284	1226.33386	701.66174	-340.23862	1189.99243	157.37631	-311.48090	1114.47693	770.32422	-469.64056	1006.54578	264.15628	-362.19971	940.74048	626.15021				-125.98580	965.06281	457.51944	-363.55493	501.88831	609.98462				-381.61374	98.79939	539.22418	14.30447	173.43991	259.64703	
370	3.690	-494.38589	1594.26233	624.08746	-208.75287	1515.99854	395.74005							-217.82434	1494.48267	641.80530	-401.02438	1458.54395	272.69116	-411.48874	1331.42957	493.90945	-507.24951	1644.23157	481.85760	-133.87599	1226.97925	704.83887	-350.33594	1191.80579	163.53990	-319.28366	1114.66577	774.76758	-478.85098	1007.30975	269.73892	-371.12274	942.31299	631.19653				-134.98157	965.45990	461.22723	-372.00641	504.17392	615.52460				-382.10553	98.64799	539.09235	-1.93369	179.35324	260.16962	
371	3.700	-500.28998	1594.66223	630.49365	-216.88982	1516.54639	399.35956							-224.85246	1495.20447	646.49811	-409.93112	1460.55029	278.23663	-420.11530	1332.83032	499.17633	-513.47699	1644.25269	488.29459	-142.31674	1227.19043	708.95636	-359.19894	1192.99878	170.16275	-326.88495	1115.36011	778.72363	-488.38983	1008.18414	275.53940	-379.84723	944.56598	636.20074				-144.53468	966.34009	464.15964	-381.34943	505.97989	621.37756	-288.60825	502.43555	314.35611	-383.24002	98.99111	538.62976	-18.83786	185.62711	260.61328	
372	3.710	-505.50046	1595.71033	637.25262	-224.16869	1517.22241	405.42038							-233.04076	1495.96765	651.66437	-419.00565	1462.31360	284.42740	-428.77588	1334.03296	504.17767	-519.21362	1645.24158	494.72073	-148.25357	1227.43652	714.40820	-368.74402	1194.52551	175.17709	-334.91061	1116.76697	783.00439	-497.91473	1009.60120	281.23761	-388.04675	946.37207	640.67755				-154.56120	966.93024	466.95657	-390.54831	507.92325	627.16687	-307.98172	503.52448	313.28268	-383.95416	99.56177	537.91992	-35.47893	192.66467	261.08780	
